<mxfile host="app.diagrams.net" modified="2024-04-02T19:57:57.258Z" agent="Mozilla/5.0 (Macintosh; Intel Mac OS X 10.15; rv:124.0) Gecko/20100101 Firefox/124.0" etag="QAje0nyUBMHKb4RB6qkf" version="24.2.1" type="github">
  <diagram name="Page-1" id="LWd8G3btwGpdAu2xx7eU">
    <mxGraphModel dx="984" dy="662" grid="1" gridSize="10" guides="1" tooltips="1" connect="1" arrows="1" fold="1" page="1" pageScale="1" pageWidth="850" pageHeight="1100" math="0" shadow="0">
      <root>
        <mxCell id="0" />
        <mxCell id="1" parent="0" />
        <mxCell id="1kcPqdqgLuLDqI2YIt5l-1" value="&lt;div&gt;&lt;b&gt;Módulo de Entrada&lt;/b&gt;&lt;br&gt;&lt;/div&gt;&lt;div align=&quot;center&quot;&gt;(Sensor biométrico, leitor de RFID, Autenticador)&lt;/div&gt;" style="rounded=0;whiteSpace=wrap;html=1;" vertex="1" parent="1">
          <mxGeometry x="170" y="120" width="120" height="110" as="geometry" />
        </mxCell>
        <mxCell id="1kcPqdqgLuLDqI2YIt5l-3" value="&lt;div&gt;&lt;b&gt;Módulo de Processamento&lt;/b&gt;&lt;/div&gt;&lt;div&gt;(Firmware/Software)&lt;br&gt;&lt;/div&gt;" style="rounded=0;whiteSpace=wrap;html=1;" vertex="1" parent="1">
          <mxGeometry x="390" y="120" width="120" height="110" as="geometry" />
        </mxCell>
        <mxCell id="1kcPqdqgLuLDqI2YIt5l-4" value="&lt;div&gt;&lt;b&gt;Módulo de Saída&lt;/b&gt;&lt;/div&gt;&lt;div&gt;(Fechadura, alarme, sinalização)&lt;br&gt;&lt;/div&gt;" style="rounded=0;whiteSpace=wrap;html=1;" vertex="1" parent="1">
          <mxGeometry x="610" y="120" width="120" height="110" as="geometry" />
        </mxCell>
        <mxCell id="1kcPqdqgLuLDqI2YIt5l-5" value="" style="edgeStyle=none;orthogonalLoop=1;jettySize=auto;html=1;rounded=0;" edge="1" parent="1">
          <mxGeometry width="80" relative="1" as="geometry">
            <mxPoint x="300" y="174.5" as="sourcePoint" />
            <mxPoint x="380" y="174.5" as="targetPoint" />
            <Array as="points" />
          </mxGeometry>
        </mxCell>
        <mxCell id="1kcPqdqgLuLDqI2YIt5l-6" value="" style="edgeStyle=none;orthogonalLoop=1;jettySize=auto;html=1;rounded=0;" edge="1" parent="1">
          <mxGeometry width="80" relative="1" as="geometry">
            <mxPoint x="520" y="174.5" as="sourcePoint" />
            <mxPoint x="600" y="174.5" as="targetPoint" />
            <Array as="points" />
          </mxGeometry>
        </mxCell>
      </root>
    </mxGraphModel>
  </diagram>
</mxfile>
